<svg width="60" height="61" viewBox="0 0 60 61" fill="none" xmlns="http://www.w3.org/2000/svg">
<g clip-path="url(#clip0_1_396)">
<g clip-path="url(#clip1_1_396)">
<g clip-path="url(#clip2_1_396)">
<mask id="mask0_1_396" style="mask-type:luminance" maskUnits="userSpaceOnUse" x="0" y="0" width="60" height="61">
<path d="M60 0.780029H0V60.78H60V0.780029Z" fill="white"/>
</mask>
<g mask="url(#mask0_1_396)">
<path d="M8.75576 37.5278L35.3054 10.978C37.136 9.14744 40.104 9.14744 41.9346 10.978L36.8955 5.93897C35.0649 4.1084 32.097 4.1084 30.2664 5.93897L3.71671 32.4887C1.88613 34.3193 1.88613 37.2873 3.71671 39.1178L8.75576 44.1568C6.92518 42.3262 6.92518 39.3583 8.75576 37.5278Z" fill="#EEF1FB"/>
<path d="M50.1537 19.1971C51.9843 21.0277 51.9843 23.9957 50.1537 25.8263L23.6039 52.3759C21.7734 54.2065 18.8054 54.2065 16.9748 52.3759L3.71671 39.1178C1.88613 37.2872 1.88613 34.3192 3.71671 32.4886L30.2664 5.93897C32.097 4.10839 35.0649 4.10839 36.8955 5.93897L43.5247 12.5681L52.9689 3.1239" stroke="#405FF2" stroke-width="3" stroke-miterlimit="10" stroke-linecap="round" stroke-linejoin="round"/>
<path d="M18.9633 31.8258C18.7631 33.2354 19.2051 34.7188 20.2894 35.8031C22.12 37.6337 25.088 37.6337 26.9186 35.8031C28.7492 33.9726 28.7492 31.0046 26.9186 29.174C25.088 27.3434 25.088 24.3754 26.9186 22.5448C28.7492 20.7142 31.7172 20.7142 33.5478 22.5448C34.6321 23.6291 35.0741 25.1125 34.8739 26.5221" stroke="#405FF2" stroke-width="3" stroke-miterlimit="10" stroke-linecap="round" stroke-linejoin="round"/>
<path d="M16.9749 39.1178L20.2894 35.8032" stroke="#405FF2" stroke-width="3" stroke-miterlimit="10" stroke-linecap="round" stroke-linejoin="round"/>
<path d="M33.5476 22.5451L36.8621 19.2305" stroke="#405FF2" stroke-width="3" stroke-miterlimit="10" stroke-linecap="round" stroke-linejoin="round"/>
<path d="M43.5938 58.4363L57.6563 44.3738" stroke="#FF5CF4" stroke-width="3" stroke-miterlimit="10" stroke-linecap="round" stroke-linejoin="round"/>
</g>
</g>
</g>
</g>
<defs>
<clipPath id="clip0_1_396">
<rect width="60" height="60" fill="white" transform="translate(0 0.780029)"/>
</clipPath>
<clipPath id="clip1_1_396">
<rect width="60" height="60" fill="white" transform="translate(0 0.780029)"/>
</clipPath>
<clipPath id="clip2_1_396">
<rect width="60" height="60" fill="white" transform="translate(0 0.780029)"/>
</clipPath>
</defs>
</svg>
