<svg width="19" height="19" viewBox="0 0 19 19" fill="none" xmlns="http://www.w3.org/2000/svg">
<g clip-path="url(#clip0_1_106)">
<path d="M18.23 11.0799C18.23 13.1199 17.63 14.9399 16.43 16.5399C16.31 16.6999 16.15 16.7899 15.95 16.8099C15.75 16.8299 15.57 16.7799 15.41 16.6599C15.25 16.5399 15.16 16.3899 15.14 16.2099C15.12 16.0299 15.17 15.8599 15.29 15.6999C16.33 14.3399 16.85 12.7999 16.85 11.0799C16.85 9.71992 16.51 8.45992 15.83 7.29992C15.15 6.13992 14.22 5.21992 13.04 4.53992C11.86 3.85992 10.59 3.51992 9.22998 3.51992C7.86998 3.51992 6.59998 3.85992 5.41998 4.53992C4.23998 5.21992 3.30998 6.13992 2.62998 7.29992C1.94998 8.45992 1.60998 9.71992 1.60998 11.0799C1.60998 12.7999 2.12998 14.3399 3.16998 15.6999C3.28998 15.8599 3.33998 16.0299 3.31998 16.2099C3.29998 16.3899 3.20998 16.5399 3.04998 16.6599C2.88998 16.7799 2.70998 16.8299 2.50998 16.8099C2.30998 16.7899 2.14998 16.6999 2.02998 16.5399C0.82998 14.9399 0.22998 13.1199 0.22998 11.0799C0.22998 9.47992 0.62998 7.98992 1.42998 6.60992C2.22998 5.22992 3.31998 4.13992 4.69998 3.33992C6.07998 2.53992 7.58998 2.13992 9.22998 2.13992C10.87 2.13992 12.38 2.53992 13.76 3.33992C15.14 4.13992 16.23 5.22992 17.03 6.60992C17.83 7.98992 18.23 9.47992 18.23 11.0799ZM13.67 6.87992C13.83 6.99992 13.91 7.15992 13.91 7.35992C13.91 7.55992 13.83 7.71992 13.67 7.83992L11.39 10.1799C11.59 10.5399 11.69 10.9199 11.69 11.3199C11.69 11.9999 11.45 12.5799 10.97 13.0599C10.49 13.5399 9.90998 13.7799 9.22998 13.7799C8.54998 13.7799 7.96998 13.5399 7.48998 13.0599C7.00998 12.5799 6.76998 11.9999 6.76998 11.3199C6.76998 10.6399 7.00998 10.0599 7.48998 9.57992C7.96998 9.09992 8.54998 8.85992 9.22998 8.85992C9.62998 8.85992 10.01 8.95992 10.37 9.15992L12.71 6.87992C12.83 6.71992 12.99 6.63992 13.19 6.63992C13.39 6.63992 13.55 6.71992 13.67 6.87992ZM10.31 11.3199C10.31 11.0399 10.2 10.7999 9.97998 10.5999C9.75998 10.3999 9.50998 10.2999 9.22998 10.2999C8.94998 10.2999 8.69998 10.3999 8.47998 10.5999C8.25998 10.7999 8.14998 11.0399 8.14998 11.3199C8.14998 11.5999 8.25998 11.8499 8.47998 12.0699C8.69998 12.2899 8.94998 12.3999 9.22998 12.3999C9.50998 12.3999 9.75998 12.2899 9.97998 12.0699C10.2 11.8499 10.31 11.5999 10.31 11.3199Z" fill="#050B20"/>
</g>
<defs>
<clipPath id="clip0_1_106">
<rect width="18" height="18" fill="white" transform="matrix(1 0 0 -1 0.22998 18.46)"/>
</clipPath>
</defs>
</svg>
