<svg width="19" height="19" viewBox="0 0 19 19" fill="none" xmlns="http://www.w3.org/2000/svg">
<path d="M3.71999 2.14003C3.15999 2.14003 2.67999 2.34003 2.27999 2.74003C1.87999 3.14003 1.67999 3.63003 1.67999 4.21003C1.67999 4.79003 1.87999 5.28003 2.27999 5.68003C2.67999 6.08003 3.15999 6.28003 3.71999 6.28003C4.27999 6.28003 4.75999 6.08003 5.15999 5.68003C5.55999 5.28003 5.75999 4.79003 5.75999 4.21003C5.75999 3.63003 5.55999 3.14003 5.15999 2.74003C4.75999 2.34003 4.27999 2.14003 3.71999 2.14003ZM3.71999 3.28003C3.95999 3.28003 4.17999 3.37003 4.37999 3.55003C4.57999 3.73003 4.67999 3.95003 4.67999 4.21003C4.67999 4.47003 4.57999 4.69003 4.37999 4.87003C4.17999 5.05003 3.95999 5.14003 3.71999 5.14003C3.47999 5.14003 3.25999 5.05003 3.05999 4.87003C2.85999 4.69003 2.75999 4.47003 2.75999 4.21003C2.75999 3.95003 2.85999 3.73003 3.05999 3.55003C3.25999 3.37003 3.47999 3.28003 3.71999 3.28003ZM3.71999 12.64C3.15999 12.64 2.67999 12.84 2.27999 13.24C1.87999 13.64 1.67999 14.13 1.67999 14.71C1.67999 15.29 1.87999 15.78 2.27999 16.18C2.67999 16.58 3.15999 16.78 3.71999 16.78C4.27999 16.78 4.75999 16.58 5.15999 16.18C5.55999 15.78 5.75999 15.29 5.75999 14.71C5.75999 14.13 5.55999 13.64 5.15999 13.24C4.75999 12.84 4.27999 12.64 3.71999 12.64ZM3.71999 13.78C3.95999 13.78 4.17999 13.87 4.37999 14.05C4.57999 14.23 4.67999 14.45 4.67999 14.71C4.67999 14.97 4.57999 15.19 4.37999 15.37C4.17999 15.55 3.95999 15.64 3.71999 15.64C3.47999 15.64 3.25999 15.55 3.05999 15.37C2.85999 15.19 2.75999 14.97 2.75999 14.71C2.75999 14.45 2.85999 14.23 3.05999 14.05C3.25999 13.87 3.47999 13.78 3.71999 13.78ZM9.71999 2.14003C9.15999 2.14003 8.67999 2.34003 8.27999 2.74003C7.87999 3.14003 7.67999 3.63003 7.67999 4.21003C7.67999 4.79003 7.87999 5.28003 8.27999 5.68003C8.67999 6.08003 9.15999 6.28003 9.71999 6.28003C10.28 6.28003 10.76 6.08003 11.16 5.68003C11.56 5.28003 11.76 4.79003 11.76 4.21003C11.76 3.63003 11.56 3.14003 11.16 2.74003C10.76 2.34003 10.28 2.14003 9.71999 2.14003ZM9.71999 3.28003C9.95999 3.28003 10.18 3.37003 10.38 3.55003C10.58 3.73003 10.68 3.95003 10.68 4.21003C10.68 4.47003 10.58 4.69003 10.38 4.87003C10.18 5.05003 9.95999 5.14003 9.71999 5.14003C9.47999 5.14003 9.25999 5.05003 9.05999 4.87003C8.85999 4.69003 8.75999 4.47003 8.75999 4.21003C8.75999 3.95003 8.85999 3.73003 9.05999 3.55003C9.25999 3.37003 9.47999 3.28003 9.71999 3.28003ZM9.71999 12.64C9.15999 12.64 8.67999 12.84 8.27999 13.24C7.87999 13.64 7.67999 14.13 7.67999 14.71C7.67999 15.29 7.87999 15.78 8.27999 16.18C8.67999 16.58 9.15999 16.78 9.71999 16.78C10.28 16.78 10.76 16.58 11.16 16.18C11.56 15.78 11.76 15.29 11.76 14.71C11.76 14.13 11.56 13.64 11.16 13.24C10.76 12.84 10.28 12.64 9.71999 12.64ZM9.71999 13.78C9.95999 13.78 10.18 13.87 10.38 14.05C10.58 14.23 10.68 14.45 10.68 14.71C10.68 14.97 10.58 15.19 10.38 15.37C10.18 15.55 9.95999 15.64 9.71999 15.64C9.47999 15.64 9.25999 15.55 9.05999 15.37C8.85999 15.19 8.75999 14.97 8.75999 14.71C8.75999 14.45 8.85999 14.23 9.05999 14.05C9.25999 13.87 9.47999 13.78 9.71999 13.78ZM15.72 2.14003C15.16 2.14003 14.68 2.34003 14.28 2.74003C13.88 3.14003 13.68 3.63003 13.68 4.21003C13.68 4.79003 13.88 5.28003 14.28 5.68003C14.68 6.08003 15.16 6.28003 15.72 6.28003C16.28 6.28003 16.76 6.08003 17.16 5.68003C17.56 5.28003 17.76 4.79003 17.76 4.21003C17.76 3.63003 17.56 3.14003 17.16 2.74003C16.76 2.34003 16.28 2.14003 15.72 2.14003ZM15.72 3.28003C15.96 3.28003 16.18 3.37003 16.38 3.55003C16.58 3.73003 16.68 3.95003 16.68 4.21003C16.68 4.47003 16.58 4.69003 16.38 4.87003C16.18 5.05003 15.96 5.14003 15.72 5.14003C15.48 5.14003 15.26 5.05003 15.06 4.87003C14.86 4.69003 14.76 4.47003 14.76 4.21003C14.76 3.95003 14.86 3.73003 15.06 3.55003C15.26 3.37003 15.48 3.28003 15.72 3.28003ZM15.72 12.64C15.16 12.64 14.68 12.84 14.28 13.24C13.88 13.64 13.68 14.13 13.68 14.71C13.68 15.29 13.88 15.78 14.28 16.18C14.68 16.58 15.16 16.78 15.72 16.78C16.28 16.78 16.76 16.58 17.16 16.18C17.56 15.78 17.76 15.29 17.76 14.71C17.76 14.13 17.56 13.64 17.16 13.24C16.76 12.84 16.28 12.64 15.72 12.64ZM15.72 13.78C15.96 13.78 16.18 13.87 16.38 14.05C16.58 14.23 16.68 14.45 16.68 14.71C16.68 14.97 16.58 15.19 16.38 15.37C16.18 15.55 15.96 15.64 15.72 15.64C15.48 15.64 15.26 15.55 15.06 15.37C14.86 15.19 14.76 14.97 14.76 14.71C14.76 14.45 14.86 14.23 15.06 14.05C15.26 13.87 15.48 13.78 15.72 13.78ZM3.17999 5.68003V13.18C3.17999 13.34 3.22999 13.48 3.32999 13.6C3.42999 13.72 3.55999 13.78 3.71999 13.78C3.87999 13.78 4.00999 13.72 4.10999 13.6C4.20999 13.48 4.25999 13.36 4.25999 13.24V5.68003C4.25999 5.56003 4.20999 5.44003 4.10999 5.32003C4.00999 5.20003 3.87999 5.14003 3.71999 5.14003C3.55999 5.14003 3.42999 5.20003 3.32999 5.32003C3.22999 5.44003 3.17999 5.56003 3.17999 5.68003ZM9.17999 5.68003V13.18C9.17999 13.34 9.22999 13.48 9.32999 13.6C9.42999 13.72 9.55999 13.78 9.71999 13.78C9.87999 13.78 10.01 13.72 10.11 13.6C10.21 13.48 10.26 13.36 10.26 13.24V5.68003C10.26 5.56003 10.21 5.44003 10.11 5.32003C10.01 5.20003 9.87999 5.14003 9.71999 5.14003C9.55999 5.14003 9.42999 5.20003 9.32999 5.32003C9.22999 5.44003 9.17999 5.56003 9.17999 5.68003ZM15.18 5.68003V8.68003C15.18 8.76003 15.16 8.82003 15.12 8.86003C15.08 8.90003 15.04 8.92003 15 8.92003H3.71999C3.55999 8.92003 3.42999 8.97003 3.32999 9.07003C3.22999 9.17003 3.17999 9.30003 3.17999 9.46003C3.17999 9.62003 3.22999 9.75003 3.32999 9.85003C3.42999 9.95003 3.55999 10 3.71999 10H15C15.36 10 15.66 9.88003 15.9 9.64003C16.14 9.40003 16.26 9.08003 16.26 8.68003V5.74003C16.26 5.58003 16.21 5.44003 16.11 5.32003C16.01 5.20003 15.88 5.14003 15.72 5.14003C15.56 5.14003 15.43 5.20003 15.33 5.32003C15.23 5.44003 15.18 5.56003 15.18 5.68003Z" fill="#050B20"/>
</svg>
