<svg width="19" height="19" viewBox="0 0 19 19" fill="none" xmlns="http://www.w3.org/2000/svg">
<g clip-path="url(#clip0_1_109)">
<path d="M10.8999 3.81996C10.8999 3.65996 10.8499 3.52996 10.7499 3.42996C10.6499 3.32996 10.5199 3.27996 10.3599 3.27996H4.71995C4.55995 3.27996 4.42995 3.32996 4.32995 3.42996C4.22995 3.52996 4.17995 3.65996 4.17995 3.81996V8.31996C4.17995 8.47996 4.22995 8.61996 4.32995 8.73996C4.42995 8.85996 4.55995 8.91996 4.71995 8.91996H10.3599C10.5199 8.91996 10.6499 8.85996 10.7499 8.73996C10.8499 8.61996 10.8999 8.47996 10.8999 8.31996V3.81996ZM9.75995 7.77996H5.25995V4.41996H9.75995V7.77996ZM17.3799 4.41996L15.0999 3.33996C14.9799 3.25996 14.8399 3.23996 14.6799 3.27996C14.5199 3.31996 14.4099 3.40996 14.3499 3.54996C14.2899 3.68996 14.2799 3.83996 14.3199 3.99996C14.3599 4.15996 14.4599 4.25996 14.6199 4.29996L15.4599 4.77996L15.3999 4.95996C15.3999 5.31996 15.5099 5.63996 15.7299 5.91996C15.9499 6.19996 16.2199 6.39996 16.5399 6.51996V13.36C16.5399 13.52 16.4799 13.66 16.3599 13.78C16.2399 13.9 16.1099 13.96 15.9699 13.96C15.8299 13.96 15.6999 13.9 15.5799 13.78C15.4599 13.66 15.3999 13.52 15.3999 13.36V8.85996C15.3999 8.21996 15.1699 7.63996 14.7099 7.11996C14.2499 6.59996 13.7399 6.27996 13.1799 6.15996V2.67996C13.1799 2.07996 12.9599 1.55996 12.5199 1.11996C12.0799 0.679962 11.5599 0.459961 10.9599 0.459961H4.17995C3.57995 0.459961 3.04995 0.679962 2.58995 1.11996C2.12995 1.55996 1.89995 2.07996 1.89995 2.67996V15.28L1.11995 15.7C0.879949 15.82 0.759949 15.98 0.759949 16.18V17.86C0.759949 18.02 0.819949 18.16 0.939949 18.28C1.05995 18.4 1.19995 18.46 1.35995 18.46H13.7199C13.8799 18.46 14.0099 18.4 14.1099 18.28C14.2099 18.16 14.2599 18.02 14.2599 17.86V16.18C14.2599 15.98 14.1599 15.82 13.9599 15.7L13.1799 15.28V7.29996C13.4599 7.41996 13.7099 7.62996 13.9299 7.92996C14.1499 8.22996 14.2599 8.53996 14.2599 8.85996V13.36C14.2599 13.84 14.4299 14.25 14.7699 14.59C15.1099 14.93 15.5099 15.1 15.9699 15.1C16.4299 15.1 16.8299 14.93 17.1699 14.59C17.5099 14.25 17.6799 13.84 17.6799 13.36V4.95996C17.6799 4.71996 17.5799 4.53996 17.3799 4.41996ZM13.1799 17.32H1.89995V16.54L2.73995 16.12C2.93995 16.04 3.03995 15.88 3.03995 15.64V2.67996C3.03995 2.39996 3.14995 2.14996 3.36995 1.92996C3.58995 1.70996 3.85995 1.59996 4.17995 1.59996H10.9599C11.2399 1.59996 11.4899 1.70996 11.7099 1.92996C11.9299 2.14996 12.0399 2.39996 12.0399 2.67996V15.64C12.0399 15.88 12.1399 16.04 12.3399 16.12L13.1799 16.54V17.32Z" fill="#050B20"/>
</g>
<defs>
<clipPath id="clip0_1_109">
<rect width="18" height="18" fill="white" transform="matrix(1 0 0 -1 0.219971 18.46)"/>
</clipPath>
</defs>
</svg>
