<svg width="26" height="26" viewBox="0 0 26 26" fill="none" xmlns="http://www.w3.org/2000/svg">
<mask id="mask0_1_30" style="mask-type:luminance" maskUnits="userSpaceOnUse" x="0" y="0" width="26" height="26">
<path d="M25.4286 0.311279H0.171417V25.5684H25.4286V0.311279Z" fill="white"/>
</mask>
<g mask="url(#mask0_1_30)">
<path d="M21.8286 9.93799H19.8149C19.1421 8.94999 18.2468 8.12408 17.2037 7.53505C16.0357 6.87544 14.7094 6.52686 13.3683 6.52686H12.8C12.3878 6.52686 12.0536 6.86099 12.0536 7.27317V9.93799H3.77138C1.9529 9.93799 0.44601 11.2936 0.205717 13.0471C0.20302 13.0641 0.200707 13.081 0.199166 13.0984C0.18163 13.2427 0.171417 13.3892 0.171417 13.5381V16.3918C0.171417 16.8039 0.505554 17.1381 0.917729 17.1381H3.52897C3.86098 18.4207 5.02814 19.3705 6.41306 19.3705C7.79796 19.3705 8.96514 18.4207 9.29712 17.1381H16.3029C16.6351 18.4207 17.802 19.3705 19.1869 19.3705C20.5718 19.3705 21.7388 18.4207 22.071 17.1381H24.6822C25.0944 17.1381 25.4286 16.8039 25.4286 16.3918V13.5381C25.4286 11.553 23.8136 9.93799 21.8286 9.93799ZM13.5463 8.02216C15.1958 8.06941 16.7603 8.77289 17.8951 9.93799H13.5463V8.02216ZM1.66405 13.9085H2.81676C3.22894 13.9085 3.56307 13.5743 3.56307 13.1621C3.56307 12.75 3.22894 12.4159 2.81676 12.4159H1.98912C2.36276 11.8245 3.02179 11.4308 3.77138 11.4308H12.0536V15.6454H9.29712C8.96491 14.3629 7.79796 13.4129 6.41306 13.4129C5.02814 13.4129 3.86117 14.3629 3.52897 15.6454H1.66405V13.9085ZM7.89914 16.3918C7.89914 17.2113 7.23257 17.8779 6.41306 17.8779C5.59352 17.8779 4.92698 17.2113 4.92698 16.3918C4.92698 15.5723 5.59352 14.9057 6.41306 14.9057C7.23257 14.9057 7.89914 15.5723 7.89914 16.3918ZM20.673 16.3918C20.673 17.2113 20.0064 17.8779 19.1869 17.8779C18.3674 17.8779 17.7008 17.2113 17.7008 16.3918C17.7008 15.5723 18.3674 14.9057 19.1869 14.9057C20.0064 14.9057 20.673 15.5723 20.673 16.3918ZM22.071 15.6454C21.739 14.3629 20.5718 13.4129 19.1869 13.4129C17.802 13.4129 16.6348 14.3629 16.3029 15.6454H13.5463V11.4308H21.8286C22.5649 11.4308 23.2141 11.8108 23.591 12.3847H22.436C22.0238 12.3847 21.6897 12.7188 21.6897 13.1309C21.6897 13.5431 22.0238 13.8774 22.436 13.8774H23.9359V15.6454H22.071Z" fill="white"/>
</g>
</svg>
