<svg width="24" height="14" viewBox="0 0 24 14" fill="none" xmlns="http://www.w3.org/2000/svg">
<path d="M19.5625 4.50231H18.6119C18.5049 4.50299 18.3989 4.4825 18.3 4.44205C18.2009 4.40159 18.1109 4.34202 18.035 4.2667L15.8737 2.10549C15.3408 1.57249 14.7072 1.15077 14.0097 0.86483C13.3123 0.578883 12.565 0.434423 11.8113 0.439844H4.9375C3.86006 0.439844 2.82674 0.867857 2.06488 1.62969C1.30301 2.39156 0.875 3.42491 0.875 4.50231V8.56481C0.875 9.21129 1.13181 9.83131 1.58893 10.2885C2.04605 10.7455 2.66603 11.0023 3.3125 11.0023C3.3125 11.7565 3.61211 12.4799 4.14542 13.0132C4.67872 13.5465 5.40204 13.8461 6.15625 13.8461C6.91044 13.8461 7.63378 13.5465 8.16708 13.0132C8.70039 12.4799 9 11.7565 9 11.0023H14.7688C14.8586 11.6821 15.1924 12.3061 15.7081 12.7581C16.2238 13.2102 16.8861 13.4594 17.5719 13.4594C18.2576 13.4594 18.92 13.2102 19.4356 12.7581C19.9514 12.3061 20.2851 11.6821 20.375 11.0023H21.1875C21.834 11.0023 22.4539 10.7455 22.9111 10.2885C23.3682 9.83131 23.625 9.21129 23.625 8.56481C23.625 7.48741 23.197 6.45406 22.4351 5.69219C21.6732 4.93039 20.64 4.50231 19.5625 4.50231ZM11.8519 2.06481C12.3857 2.06389 12.9145 2.16819 13.4081 2.37168C13.9016 2.57525 14.3502 2.87409 14.7281 3.25109L15.9794 4.50231H5.945C5.79358 4.50338 5.64488 4.46208 5.51567 4.38316C5.38646 4.30417 5.28189 4.19069 5.21375 4.05549L4.27125 2.17049C4.48674 2.10189 4.71136 2.06626 4.9375 2.06481H11.8519ZM2.5 8.56481V4.50231C2.50044 4.00892 2.6506 3.52731 2.93063 3.12109L3.74313 4.74609C3.94243 5.16064 4.25496 5.51026 4.64459 5.75466C5.03422 5.99914 5.48505 6.1283 5.945 6.12731H10.625V9.37731H8.71561C8.48742 8.89134 8.12548 8.48031 7.67224 8.19247C7.219 7.90456 6.69319 7.75169 6.15625 7.75169C5.61931 7.75169 5.09347 7.90456 4.64023 8.19247C4.18699 8.48031 3.8251 8.89134 3.59687 9.37731H3.3125C3.09701 9.37731 2.89035 9.29174 2.73798 9.13941C2.5856 8.987 2.5 8.7803 2.5 8.56481ZM6.15625 11.8148C5.91521 11.8148 5.67957 11.7434 5.47915 11.6095C5.27873 11.4755 5.12251 11.2852 5.03027 11.0625C4.93803 10.8398 4.91389 10.5947 4.96092 10.3583C5.00795 10.1219 5.12402 9.90472 5.29447 9.73427C5.46491 9.56389 5.68207 9.44781 5.91848 9.40078C6.1549 9.35375 6.39995 9.37784 6.62264 9.47014C6.84534 9.56236 7.0357 9.71859 7.1696 9.91902C7.3035 10.1194 7.375 10.3551 7.375 10.5961C7.375 10.9193 7.24661 11.2293 7.01804 11.4578C6.78948 11.6864 6.47948 11.8148 6.15625 11.8148ZM17.5312 11.8148C17.2902 11.8148 17.0546 11.7434 16.8541 11.6095C16.6537 11.4755 16.4975 11.2852 16.4053 11.0625C16.313 10.8398 16.2889 10.5947 16.3359 10.3583C16.3829 10.1219 16.499 9.90472 16.6695 9.73427C16.8399 9.56389 17.0571 9.44781 17.2935 9.40078C17.5299 9.35375 17.7749 9.37784 17.9977 9.47014C18.2204 9.56236 18.4107 9.71859 18.5446 9.91902C18.6785 10.1194 18.75 10.3551 18.75 10.5961C18.75 10.9193 18.6216 11.2293 18.393 11.4578C18.1645 11.6864 17.8545 11.8148 17.5312 11.8148ZM21.1875 9.37731H20.0906C19.8624 8.89134 19.5005 8.48031 19.0472 8.19247C18.594 7.90456 18.0682 7.75169 17.5312 7.75169C16.9943 7.75169 16.4685 7.90456 16.0153 8.19247C15.562 8.48031 15.2001 8.89134 14.9719 9.37731H12.25V6.12731H19.5625C19.9033 6.12914 20.2398 6.2024 20.5505 6.34234C20.8612 6.48236 21.1391 6.68585 21.3662 6.93981H21.1875C20.972 6.93981 20.7654 7.02545 20.613 7.17778C20.4606 7.33019 20.375 7.53689 20.375 7.75231C20.375 7.9678 20.4606 8.1745 20.613 8.32691C20.7654 8.47924 20.972 8.56481 21.1875 8.56481H22C22 8.7803 21.9144 8.987 21.762 9.13941C21.6096 9.29174 21.403 9.37731 21.1875 9.37731Z" fill="white"/>
</svg>
