<svg width="24" height="18" viewBox="0 0 24 18" fill="none" xmlns="http://www.w3.org/2000/svg">
<path d="M22.0136 7.98123L18.7743 6.68605L16.8916 2.29288C16.5065 1.39506 15.6274 0.814941 14.6508 0.814941H7.19853C6.11628 0.814941 5.15185 1.54213 4.85447 2.58294L3.73484 6.50244H1.90997C1.01378 6.50244 0.284973 7.23128 0.284973 8.12744V13.0024C0.284973 13.8986 1.01378 14.6274 1.90997 14.6274H3.65035C4.01353 16.0249 5.27535 17.0649 6.78497 17.0649C8.29458 17.0649 9.55642 16.0249 9.91958 14.6274H13.4004C13.7635 16.0249 15.0254 17.0649 16.535 17.0649C18.0446 17.0649 19.3064 16.0249 19.6696 14.6274H21.41C22.3061 14.6274 23.035 13.8986 23.035 13.0024V9.48999C23.035 8.82134 22.6344 8.22899 22.0136 7.98123ZM6.78497 15.4399C5.88878 15.4399 5.15997 14.7111 5.15997 13.8149C5.15997 12.9188 5.88878 12.1899 6.78497 12.1899C7.68113 12.1899 8.40997 12.9188 8.40997 13.8149C8.40997 14.7111 7.68113 15.4399 6.78497 15.4399ZM16.535 15.4399C15.6388 15.4399 14.91 14.7111 14.91 13.8149C14.91 12.9188 15.6388 12.1899 16.535 12.1899C17.4311 12.1899 18.16 12.9188 18.16 13.8149C18.16 14.7111 17.4311 15.4399 16.535 15.4399ZM21.41 13.0024H19.6696C19.3064 11.6049 18.0446 10.5649 16.535 10.5649C15.0254 10.5649 13.7635 11.6049 13.4004 13.0024H9.91958C9.55642 11.6049 8.29458 10.5649 6.78497 10.5649C5.27535 10.5649 4.01353 11.6049 3.65035 13.0024H1.90997V8.12744H4.34747C4.70985 8.12744 5.02916 7.88694 5.12828 7.53839L6.41608 3.02981C6.51603 2.68206 6.83697 2.43994 7.19853 2.43994H14.6508C14.9758 2.43994 15.2691 2.63331 15.3975 2.93231L17.4125 7.63505C17.497 7.83334 17.657 7.98934 17.8569 8.06978L21.41 9.48999V13.0024Z" fill="white"/>
</svg>
