<svg width="26" height="26" viewBox="0 0 26 26" fill="none" xmlns="http://www.w3.org/2000/svg">
<mask id="mask0_1_18" style="mask-type:luminance" maskUnits="userSpaceOnUse" x="0" y="0" width="26" height="26">
<path d="M25.6486 0.311279H0.391449V25.5684H25.6486V0.311279Z" fill="white"/>
</mask>
<g mask="url(#mask0_1_18)">
<path d="M23.241 11.8905L18.881 11.1635C18.6261 10.7494 18.1193 10.0004 17.3824 9.24995C15.9117 7.75213 14.2185 6.96045 12.4856 6.96045H5.38531C4.23197 6.96045 3.16263 7.58403 2.59459 8.58784L0.638002 12.0457C0.634845 12.0513 0.632477 12.0571 0.629468 12.0627C0.478123 12.3336 0.391449 12.6453 0.391449 12.977V16.6207C0.391449 17.0293 0.722751 17.3605 1.1314 17.3605H3.50129C3.84911 18.2707 4.73568 18.9195 5.77225 18.9195C6.80884 18.9195 7.69537 18.2707 8.04325 17.3605H17.2335C17.5813 18.2707 18.4678 18.9195 19.5044 18.9195C20.541 18.9195 21.4275 18.2707 21.7753 17.3605H24.9086C25.3173 17.3605 25.6486 17.0293 25.6486 16.6207V14.6617C25.6486 13.2736 24.6143 12.0843 23.241 11.8905ZM17.0297 11.0963H11.6992V8.44038H12.4856C14.583 8.44038 16.167 9.99095 17.0297 11.0963ZM6.76049 8.44038H10.2194V11.0963H6.76049V8.44038ZM3.88261 9.31666C4.17119 8.80669 4.70011 8.47931 5.28058 8.44395V11.0963H2.87558L3.88261 9.31666ZM5.77225 17.4396C5.24921 17.4396 4.82368 17.0212 4.82368 16.5068C4.82368 15.9926 5.24921 15.5741 5.77225 15.5741C6.29531 15.5741 6.72083 15.9926 6.72083 16.5068C6.72083 17.0212 6.29531 17.4396 5.77225 17.4396ZM19.5044 17.4396C18.9813 17.4396 18.5558 17.0212 18.5558 16.5068C18.5558 15.9926 18.9814 15.5741 19.5044 15.5741C20.0275 15.5741 20.453 15.9926 20.453 16.5068C20.453 17.0212 20.0275 17.4396 19.5044 17.4396ZM21.8494 15.8806C21.5711 14.853 20.6255 14.0942 19.5044 14.0942C18.3833 14.0942 17.4377 14.853 17.1593 15.8806H8.11724C7.83896 14.853 6.89334 14.0942 5.77225 14.0942C4.65118 14.0942 3.70556 14.853 3.42719 15.8806H1.87136V12.977C1.87136 12.756 2.05112 12.5762 2.27212 12.5762H18.356L23.0074 13.3519C23.0145 13.3531 23.0216 13.3542 23.0288 13.3552C23.1547 13.3724 23.2744 13.4076 23.3859 13.4575C23.0764 13.546 22.8495 13.8305 22.8495 14.1685C22.8495 14.5771 23.1808 14.9084 23.5895 14.9084H24.1687V15.8807L21.8494 15.8806Z" fill="white"/>
</g>
</svg>
