<svg width="26" height="27" viewBox="0 0 26 27" fill="none" xmlns="http://www.w3.org/2000/svg">
<mask id="mask0_1_9" style="mask-type:luminance" maskUnits="userSpaceOnUse" x="0" y="0" width="26" height="27">
<path d="M26 0.939941H0V26.9399H26V0.939941Z" fill="white"/>
</mask>
<g mask="url(#mask0_1_9)">
<path d="M25.1522 17.3312H24.3043V13.0921C24.3043 11.6896 23.1633 10.5487 21.7609 10.5487H18.9807L17.8648 7.20077C17.5179 6.16057 16.5482 5.46167 15.4517 5.46167C15.3197 5.46167 6.15383 5.46167 5.93475 5.46167C4.82945 5.46167 3.8871 6.17052 3.53712 7.15731H2.54348C1.141 7.15731 0 8.29831 0 9.70075V13.0921C0 14.4946 1.141 15.6356 2.54348 15.6356H3.39133V17.3312H2.54348C2.07527 17.3312 1.69564 17.7108 1.69564 18.179C1.69564 18.6474 2.07523 19.0269 2.54348 19.0269C3.3375 19.0269 4.29031 19.0269 5.08696 19.0269C5.08696 20.8969 6.60831 22.4183 8.47829 22.4183C10.3482 22.4183 11.8696 20.8969 11.8696 19.0269H15.8261C15.8261 20.8969 17.3475 22.4183 19.2174 22.4183C21.0875 22.4183 22.6088 20.8969 22.6088 19.0269C23.4057 19.0269 24.3588 19.0269 25.1522 19.0269C25.6205 19.0269 26.0001 18.6474 26.0001 18.179C26.0001 17.7108 25.6204 17.3312 25.1522 17.3312ZM3.39133 13.9399H2.54348C2.07599 13.9399 1.69564 13.5595 1.69564 13.0921V9.70075C1.69564 9.23321 2.07599 8.85292 2.54348 8.85292H3.39133C3.39133 9.39311 3.39133 13.4161 3.39133 13.9399ZM11.8695 7.15731H13.2826H15.4517C15.8173 7.15731 16.1405 7.39029 16.256 7.73697L17.1932 10.5486H11.8695V7.15731ZM5.08696 8.0051C5.08696 7.5376 5.46731 7.15725 5.93481 7.15725H10.174V10.5486H5.08696V8.0051ZM8.47829 20.7225C7.5433 20.7225 6.78265 19.9619 6.78265 19.0269C6.78265 18.0919 7.5433 17.3312 8.47829 17.3312C9.4133 17.3312 10.174 18.0919 10.174 19.0269C10.174 19.9619 9.4133 20.7225 8.47829 20.7225ZM19.2174 20.7225C18.2824 20.7225 17.5218 19.9619 17.5218 19.0269C17.5218 18.0919 18.2824 17.3312 19.2174 17.3312C20.1524 17.3312 20.913 18.0919 20.913 19.0269C20.913 19.9619 20.1524 20.7225 19.2174 20.7225ZM22.6087 17.3312H22.1525C21.5651 16.3186 20.4699 15.6356 19.2174 15.6356C17.9649 15.6356 16.8697 16.3186 16.2823 17.3312H11.4133C10.826 16.3186 9.73073 15.6356 8.47829 15.6356C7.22581 15.6356 6.13056 16.3186 5.54323 17.3312H5.08701V14.7877V12.2442C6.46958 12.2442 20.8531 12.2442 21.7609 12.2442C22.2284 12.2442 22.6088 12.6246 22.6088 13.0921L22.6087 17.3312Z" fill="white"/>
<path d="M14.4132 13.9399H12.7176C12.2494 13.9399 11.8698 14.3195 11.8698 14.7878C11.8698 15.256 12.2494 15.6356 12.7176 15.6356H14.4132C14.8814 15.6356 15.2611 15.2561 15.2611 14.7878C15.2611 14.3195 14.8815 13.9399 14.4132 13.9399Z" fill="white"/>
</g>
</svg>
